<svg width="438" height="48" viewBox="0 0 438 48" fill="none" xmlns="http://www.w3.org/2000/svg">
<g clip-path="url(#clip0_2002_38815)">
<path d="M121.002 0H139.655C150.736 0 157.634 6.18313 157.634 15.5484V15.6823C157.634 26.1109 149.117 31.5615 138.709 31.5615H129.311V46.5113H121.002V0ZM138.982 24.1812C145.263 24.1812 149.189 20.7233 149.189 15.8792V15.7453C149.189 10.2947 145.199 7.44339 138.982 7.44339H129.319V24.189H138.982V24.1812Z" fill="url(#paint0_linear_2002_38815)"/>
<path d="M164.092 0.0236816H172.336V46.5035H164.092V0.0236816Z" fill="url(#paint1_linear_2002_38815)"/>
<path d="M179.066 36.4134V36.2795C179.066 28.7022 185.148 24.9845 193.865 24.9845C197.855 24.9845 200.692 25.5831 203.464 26.4495V25.5831C203.464 20.5972 200.355 17.9428 194.61 17.9428C190.62 17.9428 187.648 18.8092 184.403 20.1325L182.175 13.8233C186.165 12.0983 190.011 10.9641 195.692 10.9641C201.028 10.9641 205.018 12.3583 207.518 14.8867C210.154 17.415 211.372 21.1328 211.372 25.717V46.5112H203.4V42.1239C200.964 44.9831 197.246 47.2359 191.774 47.2359C185.084 47.2359 179.066 43.4472 179.066 36.4055V36.4134ZM203.6 33.885V31.4905C201.509 30.695 198.737 30.0964 195.492 30.0964C190.22 30.0964 187.111 32.2861 187.111 35.9408V36.0747C187.111 39.4616 190.155 41.3914 194.073 41.3914C199.482 41.3914 203.6 38.3353 203.6 33.885Z" fill="url(#paint2_linear_2002_38815)"/>
<path d="M222.517 36.8074V18.3368H217.99V11.429H222.517V1.7959H230.698V11.429H240.296V18.3368H230.698V35.5471C230.698 38.6741 232.316 39.9344 235.088 39.9344C236.915 39.9344 238.534 39.5327 240.16 38.7372V45.3141C238.133 46.4405 235.906 47.11 232.789 47.11C226.772 47.11 222.517 44.5186 222.517 36.8074Z" fill="url(#paint3_linear_2002_38815)"/>
<path d="M105.081 38.4221H0V46.5271H105.081V38.4221Z" fill="url(#paint4_linear_2002_38815)"/>
<path d="M74.9795 13.8865V29.1119H84.418V20.5422H93.9206C98.8802 20.5422 103.119 17.7775 104.753 13.8865H74.9795Z" fill="#006848"/>
<path d="M101.868 2.80415C100.017 1.13431 97.5652 0.110352 94.8571 0.110352H74.5459C74.586 0.890135 74.7061 1.64629 74.8744 2.37881C74.9145 2.54422 74.9545 2.70963 75.0026 2.86716C75.0186 2.93017 75.0427 3.00106 75.0587 3.06408C76.7413 8.31777 81.7409 12.13 87.646 12.13H105.081C105.185 11.5393 105.249 10.9407 105.249 10.3263C105.249 7.34107 103.943 4.6709 101.868 2.80415Z" fill="url(#paint5_linear_2002_38815)"/>
<path d="M58.2498 3.17435L51.6396 17.2498H50.9666V0.110352H41.5762V29.1199H49.5404C51.6316 29.1199 53.5385 27.9226 54.4119 26.0559L61.022 11.9804H61.695V29.1199H71.0854V0.110352H63.1212C61.03 0.110352 59.1231 1.30759 58.2498 3.17435Z" fill="#006848"/>
<path d="M14.5343 3.92263L18.4443 17.2498H19.1173L23.0273 3.92263C23.6924 1.66204 25.7916 0.110352 28.1792 0.110352H37.5536V29.1199H28.1632V11.9804H27.4902L22.1219 29.1199H15.4157L10.0474 11.9804H9.37438V29.1199H0V0.110352H9.37438C11.762 0.110352 13.8693 1.66204 14.5263 3.92263" fill="#006848"/>
<path d="M270.56 0.0078125H305.774V7.4512H278.876V20.1404H302.737V27.5838H278.876V46.5191H270.568V0.0078125H270.56Z" fill="url(#paint6_linear_2002_38815)"/>
<path d="M309.459 29.8603V29.7264C309.459 19.6916 317.567 11.3896 328.52 11.3896C339.473 11.3896 347.509 19.5577 347.509 29.5925V29.7264C347.509 39.6903 339.401 48.0001 328.384 48.0001C317.367 48.0001 309.459 39.8321 309.459 29.8603ZM339.329 29.8603V29.7264C339.329 23.5432 334.802 18.4313 328.384 18.4313C321.966 18.4313 317.64 23.4802 317.64 29.5925V29.7264C317.64 35.8386 322.166 40.9505 328.52 40.9505C334.874 40.9505 339.337 35.9016 339.337 29.8524L339.329 29.8603Z" fill="url(#paint7_linear_2002_38815)"/>
<path d="M355.754 11.4369H363.999V19.345C366.226 14.0992 370.352 10.5075 376.634 10.7753V19.282H376.161C368.998 19.282 363.999 23.8662 363.999 33.1684V46.5271H355.754V11.4369Z" fill="url(#paint8_linear_2002_38815)"/>
<path d="M383.66 11.4369H391.905V16.7536C394.204 13.6344 397.313 10.7043 402.785 10.7043C407.921 10.7043 411.575 13.1618 413.466 16.8796C416.302 13.1618 420.092 10.7043 425.492 10.7043C433.264 10.7043 438 15.5563 438 24.1261V46.5192H429.819V26.5836C429.819 20.9991 427.183 18.0138 422.592 18.0138C418.001 18.0138 414.956 21.0699 414.956 26.7175V46.5192H406.776V26.5206C406.776 21.0699 404.075 18.0138 399.549 18.0138C395.022 18.0138 391.913 21.3378 391.913 26.7175V46.5192H383.668V11.4369H383.66Z" fill="url(#paint9_linear_2002_38815)"/>
<path d="M259.118 38.4299H250.753V46.5113H259.118V38.4299Z" fill="url(#paint10_linear_2002_38815)"/>
</g>
<defs>
<linearGradient id="paint0_linear_2002_38815" x1="-27.538" y1="22.2356" x2="459.521" y2="25.4876" gradientUnits="userSpaceOnUse">
<stop stop-color="#00AFFF"/>
<stop offset="1" stop-color="#1F5BD7"/>
</linearGradient>
<linearGradient id="paint1_linear_2002_38815" x1="-27.5381" y1="22.0073" x2="459.52" y2="25.2592" gradientUnits="userSpaceOnUse">
<stop stop-color="#00AFFF"/>
<stop offset="1" stop-color="#1F5BD7"/>
</linearGradient>
<linearGradient id="paint2_linear_2002_38815" x1="-27.5706" y1="27.6704" x2="459.48" y2="30.9224" gradientUnits="userSpaceOnUse">
<stop stop-color="#00AFFF"/>
<stop offset="1" stop-color="#1F5BD7"/>
</linearGradient>
<linearGradient id="paint3_linear_2002_38815" x1="-27.5385" y1="22.7792" x2="459.512" y2="26.0311" gradientUnits="userSpaceOnUse">
<stop stop-color="#00AFFF"/>
<stop offset="1" stop-color="#1F5BD7"/>
</linearGradient>
<linearGradient id="paint4_linear_2002_38815" x1="-27.6664" y1="41.9587" x2="459.384" y2="45.2107" gradientUnits="userSpaceOnUse">
<stop stop-color="#00AFFF"/>
<stop offset="1" stop-color="#1F5BD7"/>
</linearGradient>
<linearGradient id="paint5_linear_2002_38815" x1="74.5379" y1="6.1202" x2="105.249" y2="6.1202" gradientUnits="userSpaceOnUse">
<stop stop-color="#00AFFF"/>
<stop offset="1" stop-color="#1F5BD7"/>
</linearGradient>
<linearGradient id="paint6_linear_2002_38815" x1="-27.5299" y1="21.2274" x2="459.529" y2="24.4794" gradientUnits="userSpaceOnUse">
<stop stop-color="#00AFFF"/>
<stop offset="1" stop-color="#1F5BD7"/>
</linearGradient>
<linearGradient id="paint7_linear_2002_38815" x1="-27.5701" y1="27.3949" x2="459.48" y2="30.6469" gradientUnits="userSpaceOnUse">
<stop stop-color="#00AFFF"/>
<stop offset="1" stop-color="#1F5BD7"/>
</linearGradient>
<linearGradient id="paint8_linear_2002_38815" x1="-27.5622" y1="26.0952" x2="459.496" y2="29.3472" gradientUnits="userSpaceOnUse">
<stop stop-color="#00AFFF"/>
<stop offset="1" stop-color="#1F5BD7"/>
</linearGradient>
<linearGradient id="paint9_linear_2002_38815" x1="-27.5626" y1="25.8195" x2="459.496" y2="29.0715" gradientUnits="userSpaceOnUse">
<stop stop-color="#00AFFF"/>
<stop offset="1" stop-color="#1F5BD7"/>
</linearGradient>
<linearGradient id="paint10_linear_2002_38815" x1="-27.6583" y1="40.6511" x2="459.392" y2="43.9031" gradientUnits="userSpaceOnUse">
<stop stop-color="#00AFFF"/>
<stop offset="1" stop-color="#1F5BD7"/>
</linearGradient>
<clipPath id="clip0_2002_38815">
<rect width="438" height="48" fill="white"/>
</clipPath>
</defs>
</svg>
