<svg width="264" height="30" viewBox="0 0 264 30" fill="none" xmlns="http://www.w3.org/2000/svg">
<g clip-path="url(#clip0_2073_432)">
<path d="M72.9325 0H84.1752C90.8541 0 95.0122 3.86446 95.0122 9.71776V9.80144C95.0122 16.3193 89.8786 19.726 83.6053 19.726H77.9405V29.0696H72.9325V0ZM83.7695 15.1132C87.5557 15.1132 89.9221 12.9521 89.9221 9.92452V9.84083C89.9221 6.4342 87.5171 4.65212 83.7695 4.65212H77.9453V15.1181H83.7695V15.1132Z" fill="url(#paint0_linear_2073_432)"/>
<path d="M98.9047 0.0147705H103.874V29.0647H98.9047V0.0147705Z" fill="url(#paint1_linear_2073_432)"/>
<path d="M107.931 22.7584V22.6748C107.931 17.9389 111.596 15.6153 116.85 15.6153C119.255 15.6153 120.965 15.9895 122.636 16.531V15.9895C122.636 12.8733 120.762 11.2143 117.3 11.2143C114.895 11.2143 113.103 11.7558 111.147 12.5829L109.804 8.63963C112.209 7.56152 114.528 6.85263 117.952 6.85263C121.168 6.85263 123.573 7.72398 125.08 9.30422C126.668 10.8845 127.403 13.2081 127.403 16.0732V29.0696H122.597V26.3275C121.129 28.1145 118.888 29.5225 115.59 29.5225C111.557 29.5225 107.931 27.1546 107.931 22.7535V22.7584ZM122.718 21.1782V19.6816C121.458 19.1844 119.787 18.8103 117.831 18.8103C114.653 18.8103 112.779 20.1789 112.779 22.4631V22.5468C112.779 24.6636 114.614 25.8697 116.976 25.8697C120.236 25.8697 122.718 23.9596 122.718 21.1782Z" fill="url(#paint2_linear_2073_432)"/>
<path d="M134.12 23.0046V11.4604H131.391V7.14308H134.12V1.12241H139.051V7.14308H144.836V11.4604H139.051V22.2169C139.051 24.1713 140.026 24.959 141.697 24.959C142.798 24.959 143.774 24.7079 144.754 24.2107V28.3213C143.532 29.0253 142.19 29.4437 140.311 29.4437C136.684 29.4437 134.12 27.8241 134.12 23.0046Z" fill="url(#paint3_linear_2073_432)"/>
<path d="M63.3366 24.0138H0V29.0794H63.3366V24.0138Z" fill="url(#paint4_linear_2073_432)"/>
<path d="M45.1929 8.67902V18.1949H50.8818V12.8388H56.6094C59.5988 12.8388 62.1535 11.1109 63.1387 8.67902H45.1929Z" fill="#006848"/>
<path d="M61.4 1.75253C60.2844 0.708882 58.8067 0.0689087 57.1744 0.0689087H44.932C44.9562 0.556273 45.0286 1.02887 45.13 1.4867C45.1542 1.59008 45.1783 1.69346 45.2073 1.79191C45.2169 1.8313 45.2314 1.8756 45.2411 1.91499C46.2552 5.19854 49.2687 7.58122 52.828 7.58122H63.3366C63.3994 7.212 63.438 6.83786 63.438 6.45388C63.438 4.58811 62.6508 2.91925 61.4 1.75253Z" fill="url(#paint5_linear_2073_432)"/>
<path d="M35.1092 1.98391L31.125 10.7811H30.7193V0.0689087H25.0593V18.1999H29.8597C31.1201 18.1999 32.2695 17.4516 32.7959 16.2849L36.7801 7.48768H37.1858V18.1999H42.8457V0.0689087H38.0454C36.7849 0.0689087 35.6356 0.817186 35.1092 1.98391Z" fill="#006848"/>
<path d="M8.7604 2.45158L11.1171 10.7811H11.5228L13.8795 2.45158C14.2803 1.03872 15.5456 0.0689087 16.9847 0.0689087H22.6351V18.1999H16.9751V7.48768H16.5694L13.3338 18.1999H9.29163L6.05598 7.48768H5.65031V18.1999H0V0.0689087H5.65031C7.08945 0.0689087 8.35956 1.03872 8.75557 2.45158" fill="#006848"/>
<path d="M163.077 0.00491333H184.302V4.65703H168.09V12.5878H182.471V17.2399H168.09V29.0745H163.081V0.00491333H163.077Z" fill="url(#paint6_linear_2073_432)"/>
<path d="M186.523 18.6626V18.5789C186.523 12.3072 191.41 7.11847 198.012 7.11847C204.614 7.11847 209.458 12.2235 209.458 18.4952V18.5789C209.458 24.8064 204.57 30 197.93 30C191.29 30 186.523 24.895 186.523 18.6626ZM204.527 18.6626V18.5789C204.527 14.7145 201.798 11.5195 197.93 11.5195C194.062 11.5195 191.454 14.6751 191.454 18.4952V18.5789C191.454 22.3991 194.182 25.594 198.012 25.594C201.842 25.594 204.532 22.4385 204.532 18.6577L204.527 18.6626Z" fill="url(#paint7_linear_2073_432)"/>
<path d="M214.427 7.14803H219.396V12.0906C220.739 8.81196 223.226 6.56713 227.012 6.73451V12.0512H226.727C222.41 12.0512 219.396 14.9163 219.396 20.7302V29.0794H214.427V7.14803Z" fill="url(#paint8_linear_2073_432)"/>
<path d="M231.248 7.14801H236.217V10.471C237.603 8.52149 239.477 6.69019 242.775 6.69019C245.871 6.69019 248.073 8.22612 249.213 10.5497C250.922 8.22612 253.207 6.69019 256.461 6.69019C261.146 6.69019 264 9.72268 264 15.0788V29.0745H259.069V16.6147C259.069 13.1244 257.48 11.2586 254.713 11.2586C251.946 11.2586 250.111 13.1687 250.111 16.6984V29.0745H245.18V16.5753C245.18 13.1687 243.553 11.2586 240.824 11.2586C238.096 11.2586 236.222 13.3361 236.222 16.6984V29.0745H231.252V7.14801H231.248Z" fill="url(#paint9_linear_2073_432)"/>
<path d="M156.18 24.0187H151.139V29.0696H156.18V24.0187Z" fill="url(#paint10_linear_2073_432)"/>
</g>
<defs>
<linearGradient id="paint0_linear_2073_432" x1="-16.5984" y1="13.8973" x2="276.972" y2="15.7876" gradientUnits="userSpaceOnUse">
<stop stop-color="#00AFFF"/>
<stop offset="1" stop-color="#1F5BD7"/>
</linearGradient>
<linearGradient id="paint1_linear_2073_432" x1="-16.5983" y1="13.7545" x2="276.972" y2="15.6448" gradientUnits="userSpaceOnUse">
<stop stop-color="#00AFFF"/>
<stop offset="1" stop-color="#1F5BD7"/>
</linearGradient>
<linearGradient id="paint2_linear_2073_432" x1="-16.6176" y1="17.2941" x2="276.948" y2="19.1843" gradientUnits="userSpaceOnUse">
<stop stop-color="#00AFFF"/>
<stop offset="1" stop-color="#1F5BD7"/>
</linearGradient>
<linearGradient id="paint3_linear_2073_432" x1="-16.5985" y1="14.2369" x2="276.967" y2="16.1272" gradientUnits="userSpaceOnUse">
<stop stop-color="#00AFFF"/>
<stop offset="1" stop-color="#1F5BD7"/>
</linearGradient>
<linearGradient id="paint4_linear_2073_432" x1="-16.6757" y1="26.2242" x2="276.89" y2="28.1145" gradientUnits="userSpaceOnUse">
<stop stop-color="#00AFFF"/>
<stop offset="1" stop-color="#1F5BD7"/>
</linearGradient>
<linearGradient id="paint5_linear_2073_432" x1="44.9272" y1="3.82506" x2="63.438" y2="3.82506" gradientUnits="userSpaceOnUse">
<stop stop-color="#00AFFF"/>
<stop offset="1" stop-color="#1F5BD7"/>
</linearGradient>
<linearGradient id="paint6_linear_2073_432" x1="-16.5937" y1="13.2671" x2="276.977" y2="15.1574" gradientUnits="userSpaceOnUse">
<stop stop-color="#00AFFF"/>
<stop offset="1" stop-color="#1F5BD7"/>
</linearGradient>
<linearGradient id="paint7_linear_2073_432" x1="-16.6177" y1="17.1217" x2="276.948" y2="19.012" gradientUnits="userSpaceOnUse">
<stop stop-color="#00AFFF"/>
<stop offset="1" stop-color="#1F5BD7"/>
</linearGradient>
<linearGradient id="paint8_linear_2073_432" x1="-16.613" y1="16.3095" x2="276.958" y2="18.1998" gradientUnits="userSpaceOnUse">
<stop stop-color="#00AFFF"/>
<stop offset="1" stop-color="#1F5BD7"/>
</linearGradient>
<linearGradient id="paint9_linear_2073_432" x1="-16.6128" y1="16.1372" x2="276.958" y2="18.0275" gradientUnits="userSpaceOnUse">
<stop stop-color="#00AFFF"/>
<stop offset="1" stop-color="#1F5BD7"/>
</linearGradient>
<linearGradient id="paint10_linear_2073_432" x1="-16.671" y1="25.407" x2="276.895" y2="27.2973" gradientUnits="userSpaceOnUse">
<stop stop-color="#00AFFF"/>
<stop offset="1" stop-color="#1F5BD7"/>
</linearGradient>
<clipPath id="clip0_2073_432">
<rect width="264" height="30" fill="white"/>
</clipPath>
</defs>
</svg>
