<svg width="438" height="48" viewBox="0 0 438 48" fill="none" xmlns="http://www.w3.org/2000/svg">
<g clip-path="url(#clip0_1312_45)">
<path d="M121.002 0H139.654C150.735 0 157.634 6.18313 157.634 15.5484V15.6823C157.634 26.1109 149.117 31.5615 138.709 31.5615H129.31V46.5113H121.002V0ZM138.981 24.1812C145.263 24.1812 149.189 20.7233 149.189 15.8792V15.7453C149.189 10.2947 145.199 7.44339 138.981 7.44339H129.318V24.189H138.981V24.1812Z" fill="white"/>
<path d="M164.092 0.0236816H172.336V46.5035H164.092V0.0236816Z" fill="white"/>
<path d="M179.067 36.4134V36.2795C179.067 28.7022 185.148 24.9845 193.865 24.9845C197.855 24.9845 200.692 25.5831 203.464 26.4495V25.5831C203.464 20.5972 200.355 17.9428 194.61 17.9428C190.62 17.9428 187.648 18.8092 184.403 20.1325L182.175 13.8233C186.166 12.0983 190.011 10.9641 195.692 10.9641C201.028 10.9641 205.018 12.3583 207.518 14.8867C210.154 17.415 211.372 21.1328 211.372 25.717V46.5112H203.4V42.1239C200.964 44.9831 197.247 47.2359 191.774 47.2359C185.084 47.2359 179.067 43.4472 179.067 36.4055V36.4134ZM203.6 33.885V31.4905C201.509 30.695 198.737 30.0964 195.492 30.0964C190.22 30.0964 187.111 32.2861 187.111 35.9408V36.0747C187.111 39.4616 190.156 41.3914 194.074 41.3914C199.482 41.3914 203.6 38.3353 203.6 33.885Z" fill="white"/>
<path d="M222.517 36.8074V18.3368H217.99V11.429H222.517V1.7959H230.698V11.429H240.297V18.3368H230.698V35.5471C230.698 38.6741 232.316 39.9344 235.089 39.9344C236.916 39.9344 238.534 39.5327 240.16 38.7372V45.3141C238.133 46.4405 235.906 47.11 232.789 47.11C226.772 47.11 222.517 44.5186 222.517 36.8074Z" fill="white"/>
<path d="M105.081 38.4221H0V46.5271H105.081V38.4221Z" fill="white"/>
<path d="M74.979 13.8865V29.1119H84.4175V20.5422H93.9201C98.8797 20.5422 103.118 17.7775 104.753 13.8865H74.979Z" fill="white"/>
<path d="M101.868 2.80415C100.017 1.13431 97.5657 0.110352 94.8575 0.110352H74.5464C74.5864 0.890135 74.7066 1.64629 74.8749 2.37881C74.9149 2.54422 74.955 2.70963 75.0031 2.86716C75.0191 2.93017 75.0431 3.00106 75.0592 3.06408C76.7418 8.31777 81.7414 12.13 87.6465 12.13H105.081C105.185 11.5393 105.249 10.9407 105.249 10.3263C105.249 7.34107 103.943 4.6709 101.868 2.80415Z" fill="white"/>
<path d="M58.2493 3.17435L51.6391 17.2498H50.9661V0.110352H41.5757V29.1199H49.5399C51.6311 29.1199 53.538 27.9226 54.4114 26.0559L61.0215 11.9804H61.6946V29.1199H71.085V0.110352H63.1207C61.0295 0.110352 59.1226 1.30759 58.2493 3.17435Z" fill="white"/>
<path d="M14.5343 3.92263L18.4443 17.2498H19.1173L23.0273 3.92263C23.6924 1.66204 25.7916 0.110352 28.1792 0.110352H37.5536V29.1199H28.1632V11.9804H27.4902L22.1219 29.1199H15.4157L10.0474 11.9804H9.37438V29.1199H0V0.110352H9.37438C11.762 0.110352 13.8693 1.66204 14.5263 3.92263" fill="white"/>
<path d="M270.559 0.0078125H305.773V7.4512H278.876V20.1404H302.736V27.5838H278.876V46.5191H270.567V0.0078125H270.559Z" fill="white"/>
<path d="M309.459 29.8603V29.7264C309.459 19.6916 317.567 11.3896 328.52 11.3896C339.473 11.3896 347.509 19.5577 347.509 29.5925V29.7264C347.509 39.6903 339.401 48.0001 328.384 48.0001C317.367 48.0001 309.459 39.8321 309.459 29.8603ZM339.329 29.8603V29.7264C339.329 23.5432 334.802 18.4313 328.384 18.4313C321.966 18.4313 317.639 23.4802 317.639 29.5925V29.7264C317.639 35.8386 322.166 40.9505 328.52 40.9505C334.874 40.9505 339.337 35.9016 339.337 29.8524L339.329 29.8603Z" fill="white"/>
<path d="M355.754 11.4369H363.999V19.345C366.226 14.0992 370.352 10.5075 376.634 10.7753V19.282H376.161C368.998 19.282 363.999 23.8662 363.999 33.1684V46.5271H355.754V11.4369Z" fill="white"/>
<path d="M383.661 11.4369H391.905V16.7536C394.205 13.6344 397.314 10.7043 402.786 10.7043C407.922 10.7043 411.575 13.1618 413.466 16.8796C416.303 13.1618 420.093 10.7043 425.493 10.7043C433.265 10.7043 438 15.5563 438 24.1261V46.5192H429.819V26.5836C429.819 20.9991 427.183 18.0138 422.592 18.0138C418.001 18.0138 414.957 21.0699 414.957 26.7175V46.5192H406.776V26.5206C406.776 21.0699 404.076 18.0138 399.549 18.0138C395.022 18.0138 391.913 21.3378 391.913 26.7175V46.5192H383.669V11.4369H383.661Z" fill="white"/>
<path d="M259.118 38.4299H250.753V46.5113H259.118V38.4299Z" fill="white"/>
</g>
<defs>
<clipPath id="clip0_1312_45">
<rect width="438" height="48" fill="white"/>
</clipPath>
</defs>
</svg>
