<svg width="438" height="48" viewBox="0 0 438 48" fill="none" xmlns="http://www.w3.org/2000/svg">
<g clip-path="url(#clip0_2002_38816)">
<path d="M101.868 2.80415C100.017 1.13431 97.5652 0.110352 94.8571 0.110352H74.5459C74.586 0.890135 74.7061 1.64629 74.8744 2.37881C74.9145 2.54422 74.9545 2.70963 75.0026 2.86716C75.0186 2.93017 75.0427 3.00106 75.0587 3.06408C76.7413 8.31777 81.7409 12.13 87.646 12.13H105.081C105.185 11.5393 105.249 10.9407 105.249 10.3263C105.249 7.34107 103.943 4.6709 101.868 2.80415Z" fill="white"/>
<path d="M74.979 13.8865V29.112H84.4175V20.5423H93.9201C98.8797 20.5423 103.118 17.7776 104.753 13.8865H74.979Z" fill="white"/>
<path d="M58.2494 3.17435L51.6392 17.2498H50.9662V0.110352H41.5758V29.1199H49.54C51.6312 29.1199 53.5381 27.9226 54.4115 26.0559L61.0216 11.9804H61.6947V29.1199H71.0851V0.110352H63.1208C61.0296 0.110352 59.1227 1.30759 58.2494 3.17435Z" fill="white"/>
<path d="M14.5343 3.92263L18.4443 17.2498H19.1173L23.0273 3.92263C23.6924 1.66204 25.7916 0.110352 28.1792 0.110352H37.5536V29.1199H28.1632V11.9804H27.4902L22.1219 29.1199H15.4157L10.0474 11.9804H9.37438V29.1199H0V0.110352H9.37438C11.762 0.110352 13.8693 1.66204 14.5263 3.92263" fill="white"/>
<path d="M121.002 0H139.654C150.735 0 157.634 6.18313 157.634 15.5484V15.6823C157.634 26.1109 149.117 31.5615 138.709 31.5615H129.31V46.5113H121.002V0ZM138.981 24.1812C145.263 24.1812 149.189 20.7233 149.189 15.8792V15.7453C149.189 10.2947 145.199 7.44339 138.981 7.44339H129.318V24.189H138.981V24.1812Z" fill="white"/>
<path d="M164.092 0.0236298H172.336V46.5035H164.092V0.0236298Z" fill="white"/>
<path d="M179.067 36.4135V36.2796C179.067 28.7023 185.148 24.9846 193.865 24.9846C197.856 24.9846 200.692 25.5832 203.464 26.4496V25.5832C203.464 20.5973 200.355 17.9429 194.611 17.9429C190.62 17.9429 187.648 18.8093 184.403 20.1326L182.176 13.8234C186.166 12.0985 190.012 10.9642 195.692 10.9642C201.028 10.9642 205.019 12.3584 207.518 14.8868C210.154 17.4152 211.372 21.1329 211.372 25.7171V46.5113H203.4V42.1241C200.964 44.9833 197.247 47.236 191.774 47.236C185.084 47.236 179.067 43.4473 179.067 36.4056V36.4135ZM203.6 33.8851V31.4906C201.509 30.6951 198.737 30.0965 195.492 30.0965C190.22 30.0965 187.111 32.2862 187.111 35.9409V36.0748C187.111 39.4618 190.156 41.3915 194.074 41.3915C199.482 41.3915 203.6 38.3354 203.6 33.8851Z" fill="white"/>
<path d="M222.517 36.8074V18.3367H217.99V11.4289H222.517V1.79586H230.698V11.4289H240.297V18.3367H230.698V35.5471C230.698 38.6741 232.316 39.9344 235.089 39.9344C236.915 39.9344 238.534 39.5327 240.16 38.7371V45.3141C238.133 46.4404 235.906 47.1099 232.789 47.1099C226.772 47.1099 222.517 44.5185 222.517 36.8074Z" fill="white"/>
<path d="M105.081 38.4221H0V46.5271H105.081V38.4221Z" fill="white"/>
<path d="M270.559 0.0078766H305.773V7.45126H278.876V20.1405H302.736V27.5839H278.876V46.5192H270.567V0.0078766H270.559Z" fill="white"/>
<path d="M309.459 29.8602V29.7263C309.459 19.6915 317.567 11.3896 328.52 11.3896C339.473 11.3896 347.509 19.5576 347.509 29.5924V29.7263C347.509 39.6902 339.401 48 328.384 48C317.367 48 309.459 39.832 309.459 29.8602ZM339.329 29.8602V29.7263C339.329 23.5432 334.802 18.4312 328.384 18.4312C321.966 18.4312 317.639 23.4801 317.639 29.5924V29.7263C317.639 35.8385 322.166 40.9504 328.52 40.9504C334.874 40.9504 339.337 35.9015 339.337 29.8523L339.329 29.8602Z" fill="white"/>
<path d="M355.754 11.4368H363.998V19.3449C366.226 14.0991 370.352 10.5074 376.634 10.7752V19.2819H376.161C368.998 19.2819 363.998 23.8661 363.998 33.1684V46.5271H355.754V11.4368Z" fill="white"/>
<path d="M383.661 11.4368H391.905V16.7535C394.205 13.6344 397.314 10.7043 402.786 10.7043C407.922 10.7043 411.575 13.1618 413.466 16.8796C416.303 13.1618 420.093 10.7043 425.493 10.7043C433.265 10.7043 438 15.5563 438 24.126V46.5192H429.819V26.5835C429.819 20.999 427.183 18.0138 422.592 18.0138C418.001 18.0138 414.957 21.0699 414.957 26.7174V46.5192H406.776V26.5205C406.776 21.0699 404.076 18.0138 399.549 18.0138C395.022 18.0138 391.913 21.3377 391.913 26.7174V46.5192H383.669V11.4368H383.661Z" fill="white"/>
<path d="M259.118 38.4299H250.753V46.5113H259.118V38.4299Z" fill="white"/>
</g>
<defs>
<clipPath id="clip0_2002_38816">
<rect width="438" height="48" fill="white"/>
</clipPath>
</defs>
</svg>
